<svg width="122" height="40" viewBox="0 0 122 40" fill="none" xmlns="http://www.w3.org/2000/svg">
<path d="M15.4508 5.15248C13.4487 5.15248 12.0354 6.06523 11.2991 6.77101V5.44599H8.59125V19.2832H11.389V9.77393C12.2136 8.77296 13.5387 7.80252 15.3642 7.80252C16.5129 7.80252 17.5716 8.33185 18.2197 9.15638C18.7202 9.77393 19.0443 10.5985 19.0443 12.3646V17.8937C19.0443 18.6623 19.6669 19.2832 20.4355 19.2832H21.842V12.5122C21.842 10.1285 21.3703 8.71527 20.4881 7.59554C19.3106 6.09407 17.485 5.15248 15.4542 5.15248M31.0938 16.9301C30.3575 16.9301 29.5634 16.6654 29.18 16.1937C28.8271 15.7815 28.7677 15.1639 28.7677 14.4276V7.95012H32.4986V5.44768H28.7677V0L25.9716 1.2368V5.44768H23.0076V7.95012H25.9716V14.28C25.9716 15.7815 26.2652 17.0471 27.0897 17.9599C27.9737 18.9609 29.2682 19.5784 31.0056 19.5784C31.7996 19.5784 32.6547 19.4613 33.1841 19.2832L32.6259 16.7502C32.2136 16.8673 31.5061 16.9267 31.0938 16.9267M36.8268 10.5968C37.2984 8.8001 38.917 7.59384 40.7138 7.59384C42.3629 7.59384 43.9526 8.83064 44.3649 10.5968H36.8285H36.8268ZM40.6238 5.15078C36.708 5.15078 33.8814 8.21139 33.8814 12.3646C33.8814 16.5178 37.0015 19.5767 41.0361 19.5767C43.8627 19.5767 45.8342 18.3111 46.8658 16.986L45.0402 15.2488C44.2445 16.131 43.1264 17.132 41.065 17.132C38.6506 17.132 36.7368 15.2776 36.5909 12.9516H47.2492C47.2781 12.6869 47.2781 12.48 47.2781 12.3629C47.2781 8.27077 44.4803 5.14909 40.6238 5.14909M52.5207 7.03397V5.44429H49.8128V19.2815H52.6106V10.1251C53.3758 8.8001 54.9079 7.79913 56.35 7.79913C56.7911 7.79913 57.1152 7.82797 57.4392 7.91619L57.7633 5.23731C57.4392 5.17793 56.9676 5.14909 56.6741 5.14909C54.6432 5.14909 53.1993 6.09068 52.5224 7.03397M66.5078 5.14909C64.5058 5.14909 63.0925 6.06184 62.3561 6.76761V5.44259H59.6483V19.2798H62.446V9.77054C63.2706 8.76956 64.5957 7.79913 66.4213 7.79913C67.5699 7.79913 68.6286 8.32846 69.2767 9.15299C69.7772 9.77054 70.1013 10.5951 70.1013 12.3612V17.8903C70.1013 18.6589 70.724 19.2798 71.4925 19.2798H72.899V12.5088C72.899 10.1251 72.4274 8.71188 71.5451 7.59214C70.3677 6.09068 68.5421 5.14909 66.5112 5.14909M78.1332 10.5968C78.6049 8.8001 80.2234 7.59384 82.0202 7.59384C83.6693 7.59384 85.2591 8.83064 85.6714 10.5968H78.1349H78.1332ZM81.9303 5.15078C78.0144 5.15078 75.1878 8.21139 75.1878 12.3646C75.1878 16.5178 78.3079 19.5767 82.3426 19.5767C85.1692 19.5767 87.1407 18.3111 88.1722 16.986L86.3466 15.2488C85.5526 16.131 84.4328 17.132 82.3714 17.132C79.9571 17.132 78.0433 15.2776 77.8957 12.9516H88.554C88.5828 12.6869 88.5828 12.48 88.5828 12.3629C88.5828 8.27077 85.7867 5.14909 81.9286 5.14909M97.5394 16.7604C96.803 16.7604 96.009 16.4957 95.6256 16.0241C95.2727 15.6118 95.2133 14.9943 95.2133 14.258V7.94673H98.9442V5.44429H95.2133V0L92.4172 1.2368V5.44768H89.4532V7.95012H92.4172V14.1138C92.4172 15.6152 92.7107 16.8809 93.5353 17.7936C94.4192 18.7946 95.7138 19.4121 97.4511 19.4121C97.9584 19.4121 98.4878 19.3646 98.9442 19.2832V16.6162C98.5251 16.7129 97.9126 16.7621 97.5394 16.7621M2.18982 19.2849H4.98758V5.44768H2.18982V19.2849ZM3.67268 33.3749C3.82029 35.7009 5.7341 37.5552 8.14842 37.5552C10.2098 37.5552 11.3279 36.5543 12.1237 35.6704L13.9492 37.4076C12.9194 38.7327 10.9462 39.9983 8.11958 39.9983C4.08497 39.9983 0.964844 36.936 0.964844 32.7845C0.964844 28.633 3.79145 25.5707 7.7073 25.5707C11.6231 25.5707 14.3615 28.6924 14.3615 32.7845C14.3615 32.9016 14.3615 33.1085 14.3327 33.3732H3.67099L3.67268 33.3749ZM3.90852 31.0201H11.445C11.0327 29.2539 9.44296 28.0171 7.79383 28.0171C5.99708 28.0171 4.37849 29.2251 3.90682 31.0201M15.6119 38.0863C17.1423 39.3231 18.9984 40 21.2058 40C23.9153 40 26.3585 38.3815 26.3585 35.7603C26.3585 32.9033 23.5013 31.9328 21.3228 31.3729C19.9401 31.0201 18.8491 30.696 18.8491 29.7527C18.8491 28.6635 19.9978 28.0154 21.3517 28.0154C22.4715 28.0154 23.4725 28.4565 24.3259 29.1046L25.768 27.1027C24.6788 26.2188 23.2061 25.5707 21.1752 25.5707C18.7015 25.5707 16.0531 26.9262 16.0531 29.8986C16.0531 31.8429 17.5546 32.9016 19.2326 33.4614C21.2635 34.1384 23.5607 34.2266 23.5607 35.8163C23.5607 36.9055 22.3527 37.5536 21.1464 37.5536C19.7619 37.5536 18.3486 37.0242 17.0541 36.0232L15.6119 38.0846V38.0863ZM27.6802 38.0863C29.2105 39.3231 31.0667 40 33.274 40C35.9835 40 38.4267 38.3815 38.4267 35.7603C38.4267 32.9033 35.5712 31.9328 33.3928 31.3729C32.0083 31.0201 30.919 30.696 30.919 29.7527C30.919 28.6635 32.0677 28.0154 33.4216 28.0154C34.5397 28.0154 35.5424 28.4565 36.3958 29.1046L37.838 27.1027C36.7487 26.2188 35.276 25.5707 33.2451 25.5707C30.7714 25.5707 28.123 26.9262 28.123 29.8986C28.123 31.8429 29.6245 32.9016 31.3025 33.4614C33.3334 34.1384 35.6306 34.2266 35.6306 35.8163C35.6306 36.9055 34.4243 37.5536 33.2163 37.5536C31.8318 37.5536 30.4185 37.0242 29.124 36.0232L27.6819 38.0846L27.6802 38.0863ZM42.6191 33.3749C42.7667 35.7009 44.6805 37.5552 47.0931 37.5552C49.1546 37.5552 50.2726 36.5543 51.0684 35.6704L52.8939 37.4076C51.8641 38.7327 49.8909 39.9983 47.0643 39.9983C43.0297 39.9983 39.9096 36.936 39.9096 32.7845C39.9096 28.633 42.7362 25.5707 46.652 25.5707C50.5679 25.5707 53.3062 28.6924 53.3062 32.7845C53.3062 32.9016 53.3062 33.1085 53.2774 33.3732H42.6191V33.3749ZM42.8549 31.0201H50.3914C49.9791 29.2539 48.3894 28.0171 46.7402 28.0171C44.9435 28.0171 43.3249 29.2251 42.8532 31.0201M58.5489 25.8676H55.841V39.7048H58.6388V30.1955C59.4633 29.1946 60.7884 28.2224 62.614 28.2224C63.7626 28.2224 64.8213 28.7518 65.4695 29.5763C65.97 30.1938 66.294 31.0184 66.294 32.7845V38.3119C66.294 39.0805 66.9167 39.7031 67.6836 39.7031H69.0901V32.9321C69.0901 30.5467 68.6184 29.1352 67.7362 28.0154C66.5587 26.514 64.7331 25.5724 62.7022 25.5724C60.6714 25.5724 59.2869 26.4851 58.5506 27.1926V25.8676H58.5489ZM82.6683 39.7048H85.4661V25.8676H82.6683V39.7048ZM99.1902 38.4392C98.0704 39.4401 96.5706 40 94.9214 40C93.6846 40 92.3901 39.6471 91.4467 39.0872C89.3565 37.8504 87.9126 35.5533 87.9126 32.7862C87.9126 30.0191 89.3853 27.6931 91.4756 26.4563C92.4172 25.8964 93.5658 25.5724 94.8621 25.5724C96.423 25.5724 97.9245 26.044 99.1902 27.1332V25.8676H101.898V39.7048H99.1902V38.4392ZM99.102 30.1955C98.2486 29.0775 96.8353 28.2224 95.1573 28.2224C92.4783 28.2224 90.7121 30.372 90.7121 32.7862C90.7121 35.2004 92.6259 37.35 95.3049 37.35C96.7182 37.35 98.1603 36.6425 99.1037 35.3769V30.1955H99.102ZM105.385 39.7048H108.182V20.7185H105.385V39.7048ZM110.495 38.0863C112.025 39.3231 113.881 40 116.089 40C118.798 40 121.241 38.3815 121.241 35.7603C121.241 32.9033 118.386 31.9328 116.206 31.3729C114.821 31.0201 113.732 30.696 113.732 29.7527C113.732 28.6635 114.881 28.0154 116.235 28.0154C117.353 28.0154 118.355 28.4565 119.209 29.1046L120.651 27.1027C119.562 26.2188 118.089 25.5707 116.058 25.5707C113.585 25.5707 110.936 26.9262 110.936 29.8986C110.936 31.8429 112.438 32.9016 114.116 33.4614C116.146 34.1384 118.444 34.2266 118.444 35.8163C118.444 36.9055 117.236 37.5536 116.029 37.5536C114.647 37.5536 113.232 37.0242 111.937 36.0232L110.495 38.0846V38.0863ZM78.4793 37.35C77.743 37.35 76.9489 37.0853 76.5655 36.6136C76.2126 36.2014 76.1532 35.5838 76.1532 34.8475V28.37H79.8841V25.8676H76.1532V20.4199L73.3571 21.6567V25.8676H70.3931V28.37H73.3571V34.6999C73.3571 36.2014 73.6507 37.467 74.4752 38.3798C75.3592 39.3808 76.6537 39.9983 78.3911 39.9983C79.1851 39.9983 80.0402 39.8812 80.5696 39.7031L80.0114 37.1701C79.5991 37.2872 78.8916 37.3466 78.4793 37.3466" fill="black"/>
</svg>
