<svg width="344" height="31" viewBox="0 0 344 31" fill="none" xmlns="http://www.w3.org/2000/svg">
<path d="M4.07186 23.2256H0.359859L8.58386 11.0976L1.63986 0.825584H5.38386L10.4399 8.34558L15.4959 0.825584H19.2079L12.2639 11.0336L20.4879 23.2256H16.7439L10.4079 13.7856L4.07186 23.2256ZM31.8773 1.30558L30.5653 3.57759C30.0533 3.25759 29.4773 3.06558 28.8693 3.06558C28.1653 3.06558 27.5573 3.35358 27.2053 3.80158C26.9173 4.15359 26.7573 4.56959 26.7573 5.68958V8.18559H31.2373V10.9056H26.7573V23.2256H23.7173V10.9056H20.1973V8.18559H23.7173V5.78559C23.7173 3.60958 24.3573 2.20159 25.4453 1.30558C26.3093 0.601585 27.4293 0.185585 28.6773 0.185585C29.8933 0.185585 30.9813 0.633585 31.8773 1.30558ZM34.5333 23.2256V8.18559H37.5733V23.2256H34.5333ZM34.0533 2.84159C34.0533 1.72158 34.9173 0.825584 36.0373 0.825584C37.1573 0.825584 38.0533 1.72158 38.0533 2.84159C38.0533 3.96158 37.1573 4.82558 36.0373 4.82558C34.9173 4.82558 34.0533 3.96158 34.0533 2.84159ZM45.5964 8.18559V9.62559C46.3964 8.85758 47.9324 7.86559 50.1084 7.86559C52.3164 7.86559 54.3004 8.88959 55.5804 10.5216C56.5404 11.7376 57.0524 13.2736 57.0524 15.8656V23.2256H54.0124V15.7056C54.0124 13.7856 53.6604 12.8896 53.1164 12.2176C52.4124 11.3216 51.2604 10.7456 50.0124 10.7456C48.0284 10.7456 46.5884 11.8016 45.6924 12.8896V23.2256H42.6524V8.18559H45.5964ZM61.8454 23.2256V8.18559H64.8854V23.2256H61.8454ZM61.3654 2.84159C61.3654 1.72158 62.2294 0.825584 63.3494 0.825584C64.4694 0.825584 65.3654 1.72158 65.3654 2.84159C65.3654 3.96158 64.4694 4.82558 63.3494 4.82558C62.2294 4.82558 61.3654 3.96158 61.3654 2.84159ZM78.5205 20.2176L79.7045 22.5216C78.6485 23.2256 77.5605 23.5456 76.3765 23.5456C74.8725 23.5456 73.4645 22.9056 72.5685 21.8176C71.8645 20.9536 71.5445 19.8016 71.5445 17.9456V10.9056H68.0245V8.18559H71.5445V3.35358H74.5845V8.18559H79.0645V10.9056H74.5845V18.0416C74.5845 19.2256 74.7445 19.7056 75.0645 20.0896C75.4485 20.5376 76.0245 20.7616 76.6965 20.7616C77.3365 20.7616 78.0085 20.5376 78.5205 20.2176ZM86.6619 30.9056H83.5579L87.6539 21.9456L80.9019 8.18559H84.1339L89.1899 18.6176L93.9259 8.18559H97.0619L86.6619 30.9056ZM110.825 10.2656H115.945C117.481 10.2656 118.313 9.88159 118.889 9.27359C119.433 8.69759 119.785 7.92959 119.785 7.06559C119.785 6.20159 119.433 5.43358 118.889 4.85759C118.313 4.24958 117.481 3.86559 115.945 3.86559H110.825V10.2656ZM116.105 13.3056H110.825V23.2256H107.625V0.825584H116.105C118.281 0.825584 119.689 1.36959 120.777 2.29758C122.121 3.44958 122.985 5.14559 122.985 7.06559C122.985 8.98559 122.121 10.6816 120.777 11.8336C119.689 12.7616 118.281 13.3056 116.105 13.3056ZM134.54 8.08959V10.9376C134.188 10.8736 133.9 10.8416 133.484 10.8416C131.724 10.8416 130.092 11.8016 129.1 13.3696V23.2256H126.06V8.18559H129.004V9.97758C129.74 9.01758 131.308 8.02559 133.516 8.02559C133.708 8.02559 134.06 8.02559 134.54 8.08959ZM150.818 16.3456H139.202C139.426 18.8736 141.25 20.8256 143.906 20.8256C145.89 20.8256 147.394 19.8656 148.418 18.8736L150.21 20.7296C148.674 22.4896 146.498 23.5456 143.778 23.5456C139.362 23.5456 136.29 20.2176 136.29 15.7056C136.29 11.1936 139.362 7.86559 143.714 7.86559C147.874 7.86559 150.85 11.2576 150.85 15.7056C150.85 15.8336 150.85 16.0576 150.818 16.3456ZM143.714 10.5216C141.762 10.5216 140.002 11.8336 139.49 13.7856H147.682C147.234 11.8656 145.506 10.5216 143.714 10.5216ZM157.642 21.9136V30.9056H154.602V8.18559H157.546V9.56159C158.922 8.37759 160.554 7.86559 162.25 7.86559C163.658 7.86559 164.906 8.21759 165.93 8.82559C168.202 10.1696 169.802 12.6976 169.802 15.7056C169.802 18.7136 168.234 21.2096 165.962 22.5536C164.938 23.1616 163.53 23.5456 162.186 23.5456C160.394 23.5456 158.858 22.9696 157.642 21.9136ZM157.642 12.8896V18.5216C158.666 19.8976 160.234 20.6656 161.77 20.6656C164.682 20.6656 166.762 18.3936 166.762 15.7056C166.762 13.0816 164.842 10.7456 161.93 10.7456C160.106 10.7456 158.57 11.6736 157.642 12.8896ZM184.868 23.2256V21.8496C183.652 22.9376 182.02 23.5456 180.228 23.5456C178.884 23.5456 177.476 23.1616 176.452 22.5536C174.18 21.2096 172.612 18.7136 172.612 15.7056C172.612 12.6976 174.212 10.1696 176.484 8.82559C177.508 8.21759 178.756 7.86559 180.164 7.86559C181.86 7.86559 183.492 8.37759 184.868 9.56159V8.18559H187.812V23.2256H184.868ZM184.772 18.5216V12.8896C183.844 11.6736 182.308 10.7456 180.484 10.7456C177.572 10.7456 175.652 13.0816 175.652 15.7056C175.652 18.3936 177.732 20.6656 180.644 20.6656C182.18 20.6656 183.748 19.8976 184.772 18.5216ZM192.863 23.2256V8.18559H195.903V23.2256H192.863ZM192.383 2.84159C192.383 1.72158 193.247 0.825584 194.367 0.825584C195.487 0.825584 196.383 1.72158 196.383 2.84159C196.383 3.96158 195.487 4.82558 194.367 4.82558C193.247 4.82558 192.383 3.96158 192.383 2.84159ZM212.098 23.2256V21.8496C210.882 22.9376 209.25 23.5456 207.458 23.5456C206.114 23.5456 204.706 23.1616 203.682 22.5536C201.41 21.2096 199.842 18.7136 199.842 15.7056C199.842 12.6976 201.442 10.1696 203.714 8.82559C204.738 8.21759 205.986 7.86559 207.394 7.86559C209.026 7.86559 210.658 8.37759 212.002 9.49759V0.505585H215.042V23.2256H212.098ZM212.002 18.5216V12.8896C211.074 11.6736 209.538 10.7456 207.714 10.7456C204.802 10.7456 202.882 13.0816 202.882 15.7056C202.882 18.3936 204.962 20.6656 207.874 20.6656C209.41 20.6656 210.978 19.8976 212.002 18.5216ZM228.325 23.2256V0.825584H231.525V23.2256H228.325ZM239.891 8.18559V9.62559C240.691 8.85758 242.227 7.86559 244.403 7.86559C246.611 7.86559 248.595 8.88959 249.875 10.5216C250.835 11.7376 251.347 13.2736 251.347 15.8656V23.2256H248.307V15.7056C248.307 13.7856 247.955 12.8896 247.411 12.2176C246.707 11.3216 245.555 10.7456 244.307 10.7456C242.323 10.7456 240.883 11.8016 239.987 12.8896V23.2256H236.947V8.18559H239.891ZM264.372 20.2176L265.556 22.5216C264.5 23.2256 263.412 23.5456 262.228 23.5456C260.724 23.5456 259.316 22.9056 258.42 21.8176C257.716 20.9536 257.396 19.8016 257.396 17.9456V10.9056H253.876V8.18559H257.396V3.35358H260.436V8.18559H264.916V10.9056H260.436V18.0416C260.436 19.2256 260.596 19.7056 260.916 20.0896C261.3 20.5376 261.876 20.7616 262.548 20.7616C263.188 20.7616 263.86 20.5376 264.372 20.2176ZM281.96 16.3456H270.344C270.568 18.8736 272.392 20.8256 275.048 20.8256C277.032 20.8256 278.536 19.8656 279.56 18.8736L281.352 20.7296C279.816 22.4896 277.64 23.5456 274.92 23.5456C270.504 23.5456 267.432 20.2176 267.432 15.7056C267.432 11.1936 270.504 7.86559 274.856 7.86559C279.016 7.86559 281.992 11.2576 281.992 15.7056C281.992 15.8336 281.992 16.0576 281.96 16.3456ZM274.856 10.5216C272.904 10.5216 271.144 11.8336 270.632 13.7856H278.824C278.376 11.8656 276.648 10.5216 274.856 10.5216ZM294.225 8.08959V10.9376C293.873 10.8736 293.585 10.8416 293.169 10.8416C291.409 10.8416 289.777 11.8016 288.785 13.3696V23.2256H285.745V8.18559H288.689V9.97758C289.425 9.01758 290.993 8.02559 293.201 8.02559C293.393 8.02559 293.745 8.02559 294.225 8.08959ZM300.413 8.18559V9.62559C301.213 8.85758 302.749 7.86559 304.925 7.86559C307.133 7.86559 309.117 8.88959 310.397 10.5216C311.357 11.7376 311.869 13.2736 311.869 15.8656V23.2256H308.829V15.7056C308.829 13.7856 308.477 12.8896 307.933 12.2176C307.229 11.3216 306.077 10.7456 304.829 10.7456C302.845 10.7456 301.405 11.8016 300.509 12.8896V23.2256H297.469V8.18559H300.413ZM330.102 16.3456H318.486C318.71 18.8736 320.534 20.8256 323.19 20.8256C325.174 20.8256 326.678 19.8656 327.702 18.8736L329.494 20.7296C327.958 22.4896 325.782 23.5456 323.062 23.5456C318.646 23.5456 315.574 20.2176 315.574 15.7056C315.574 11.1936 318.646 7.86559 322.998 7.86559C327.158 7.86559 330.134 11.2576 330.134 15.7056C330.134 15.8336 330.134 16.0576 330.102 16.3456ZM322.998 10.5216C321.046 10.5216 319.286 11.8336 318.774 13.7856H326.966C326.518 11.8656 324.79 10.5216 322.998 10.5216ZM342.149 20.2176L343.333 22.5216C342.277 23.2256 341.189 23.5456 340.005 23.5456C338.501 23.5456 337.093 22.9056 336.197 21.8176C335.493 20.9536 335.173 19.8016 335.173 17.9456V10.9056H331.653V8.18559H335.173V3.35358H338.213V8.18559H342.693V10.9056H338.213V18.0416C338.213 19.2256 338.373 19.7056 338.693 20.0896C339.077 20.5376 339.653 20.7616 340.325 20.7616C340.965 20.7616 341.637 20.5376 342.149 20.2176Z" fill="black"/>
</svg>
